<?xml version="1.0" standalone="no"?>
<svg xmlns:xlink="http://www.w3.org/1999/xlink" id="wave" style="transform:rotate(0deg); transition: 0.3s" viewBox="0 0 1440 220" version="1.1" xmlns="http://www.w3.org/2000/svg"><defs><linearGradient id="sw-gradient-0" x1="0" x2="0" y1="1" y2="0"><stop stop-color="rgba(122.877, 234.879, 234.5, 1)" offset="0%"/><stop stop-color="rgba(11, 255, 229.374, 1)" offset="100%"/></linearGradient></defs><path style="transform:translate(0, 0px); opacity:1" fill="url(#sw-gradient-0)" d="M0,176L30,168.7C60,161,120,147,180,150.3C240,154,300,176,360,172.3C420,169,480,139,540,113.7C600,88,660,66,720,47.7C780,29,840,15,900,25.7C960,37,1020,73,1080,84.3C1140,95,1200,81,1260,69.7C1320,59,1380,51,1440,69.7C1500,88,1560,132,1620,146.7C1680,161,1740,147,1800,124.7C1860,103,1920,73,1980,51.3C2040,29,2100,15,2160,40.3C2220,66,2280,132,2340,154C2400,176,2460,154,2520,121C2580,88,2640,44,2700,36.7C2760,29,2820,59,2880,73.3C2940,88,3000,88,3060,77C3120,66,3180,44,3240,29.3C3300,15,3360,7,3420,25.7C3480,44,3540,88,3600,121C3660,154,3720,176,3780,161.3C3840,147,3900,95,3960,62.3C4020,29,4080,15,4140,18.3C4200,22,4260,44,4290,55L4320,66L4320,220L4290,220C4260,220,4200,220,4140,220C4080,220,4020,220,3960,220C3900,220,3840,220,3780,220C3720,220,3660,220,3600,220C3540,220,3480,220,3420,220C3360,220,3300,220,3240,220C3180,220,3120,220,3060,220C3000,220,2940,220,2880,220C2820,220,2760,220,2700,220C2640,220,2580,220,2520,220C2460,220,2400,220,2340,220C2280,220,2220,220,2160,220C2100,220,2040,220,1980,220C1920,220,1860,220,1800,220C1740,220,1680,220,1620,220C1560,220,1500,220,1440,220C1380,220,1320,220,1260,220C1200,220,1140,220,1080,220C1020,220,960,220,900,220C840,220,780,220,720,220C660,220,600,220,540,220C480,220,420,220,360,220C300,220,240,220,180,220C120,220,60,220,30,220L0,220Z"/></svg>